#!OML:ASF H:\LiuWeirdWalks\Patient Classification 1\Patient 1\Session 1\male.ASF
:FULLY-SPECIFIED
:DEGREES
535
root 1.25028 17.6912 -20.59 3.26327 0.353222 0.0249058
lowerback 7.85905 0.0339799 4.37457
upperback 1.35603 0.660014 7.36617
thorax -3.04775 0.316042 5.16589
lowerneck -14.247 1.63646 7.23523
upperneck 17.8752 3.95271 -16.3576
head 8.38005 0.791049 -6.35564
rclavicle -2.62396e-014 -2.54444e-014
rhumerus -28.02 -30.718 -10.5293
rradius 31.9427
rwrist -6.05991
rhand -21.3398 -3.116
rfingers 7.12502
rthumb 5.04622 -33.0359
lclavicle -2.62396e-014 -2.54444e-014
lhumerus -24.3859 23.9897 11.9884
lradius 31.897
lwrist 1.58066
lhand -13.6835 5.18681
lfingers 7.12502
lthumb 12.4342 34.797
rfemur 7.22338 1.61613 14.813
rtibia 31.681
rfoot -6.61177 -23.2331
rtoes -15.1456
lfemur -25.7212 3.82877 -21.6409
ltibia 37.0152
lfoot -9.36592 9.68574
ltoes -6.11882
536
root 1.26571 17.7071 -20.5251 3.27994 0.137135 -0.0328468
lowerback 7.86104 0.0725913 4.08068
upperback 1.37704 0.678565 7.18858
thorax -3.02889 0.327214 5.1401
lowerneck -14.3244 1.68936 7.29598
upperneck 17.9186 3.96643 -16.1231
head 8.40559 0.819067 -6.28305
rclavicle -7.15625e-015 5.08889e-014
rhumerus -28.009 -30.6907 -10.3819
rradius 31.9944
rwrist -6.03905
rhand -21.2912 -3.11476
rfingers 7.12502
rthumb 5.0932 -33.0336
lclavicle -7.15625e-015 5.08889e-014
lhumerus -24.4553 24.0487 11.9041
lradius 31.8525
lwrist 1.55187
lhand -13.7328 5.26178
lfingers 7.12502
lthumb 12.3867 34.8748
rfemur 6.76479 1.49935 14.7052
rtibia 32.603
rfoot -5.92745 -22.8967
rtoes -15.2229
lfemur -25.2961 3.77887 -21.5889
ltibia 36.7122
lfoot -9.53599 9.92688
ltoes -5.9882
537
root 1.28032 17.7232 -20.4613 3.2929 -0.0661847 -0.0797596
lowerback 7.86807 0.105415 3.76979
upperback 1.39551 0.689 7.0153
thorax -3.01535 0.334517 5.1299
lowerneck -14.3749 1.71766 7.26793
upperneck 17.946 3.9555 -15.8437
head 8.41512 0.835058 -6.18033
rclavicle -1.27222e-014 -1.90833e-014
rhumerus -27.9814 -30.5871 -10.2538
rradius 32.0639
rwrist -6.07433
rhand -21.2641 -3.12589
rfingers 7.12502
rthumb 5.11936 -33.0441
lclavicle -1.27222e-014 -1.90833e-014
lhumerus -24.5342 24.126 11.8184
lradius 31.7889
lwrist 1.48705
lhand -13.7753 5.30855
lfingers 7.12502
lthumb 12.3458 34.924
rfemur 6.24621 1.36001 14.5862
rtibia 33.6132
rfoot -5.2048 -22.5721
rtoes -15.138
lfemur -24.8571 3.72888 -21.5472
ltibia 36.3757
lfoot -9.6875 10.1485
ltoes -5.87155
538
root 1.29424 17.7396 -20.3984 3.30033 -0.258048 -0.125854
lowerback 7.87744 0.139265 3.45685
upperback 1.41704 0.700887 6.84682
thorax -3.0002 0.342557 5.12617
lowerneck -14.4092 1.68764 7.0841
upperneck 17.9773 3.88342 -15.4858
head 8.41079 0.819248 -6.02894
rclavicle 2.38542e-015 9.54166e-014
rhumerus -27.9627 -30.4441 -10.1184
rradius 32.1478
rwrist -6.13045
rhand -21.261 -3.14574
rfingers 7.12502
rthumb 5.12234 -33.0638
lclavicle 2.38542e-015 9.54166e-014
lhumerus -24.6048 24.1936 11.7536
lradius 31.7259
lwrist 1.43519
lhand -13.8211 5.39666
lfingers 7.12502
lthumb 12.3016 35.0148
rfemur 5.67263 1.19949 14.4674
rtibia 34.7063
rfoot -4.43217 -22.257
rtoes -14.9522
lfemur -24.403 3.68149 -21.5042
ltibia 36.0088
lfoot -9.81906 10.3499
ltoes -5.76075
539
root 1.3078 17.7564 -20.3359 3.30264 -0.44525 -0.156349
lowerback 7.87784 0.176529 3.13461
upperback 1.44888 0.715095 6.67504
thorax -2.96958 0.351734 5.12415
lowerneck -14.4076 1.67791 6.97945
upperneck 17.9294 3.82776 -15.197
head 8.37881 0.813835 -5.91144
rclavicle -1.98785e-014 4.77083e-015
rhumerus -27.9434 -30.2738 -9.99178
rradius 32.2467
rwrist -6.26224
rhand -21.2872 -3.19144
rfingers 7.12502
rthumb 5.09702 -33.1101
lclavicle -1.98785e-014 4.77083e-015
lhumerus -24.6459 24.3216 11.7043
lradius 31.6395
lwrist 1.32907
lhand -13.8299 5.43677
lfingers 7.12502
lthumb 12.2931 35.0554
rfemur 5.04481 1.01608 14.3266
rtibia 35.8733
rfoot -3.55862 -21.9237
rtoes -14.7119
lfemur -23.931 3.63766 -21.4791
ltibia 35.6124
lfoot -9.92629 10.5414
ltoes -5.68599
